<?xml version="1.0" encoding="UTF-8" standalone="no"?>
<!DOCTYPE svg PUBLIC "-//W3C//DTD SVG 1.1//EN" "http://www.w3.org/Graphics/SVG/1.1/DTD/svg11.dtd">
<svg width="100%" height="100%" viewBox="0 0 4750 1747" version="1.1" xmlns="http://www.w3.org/2000/svg" xmlns:xlink="http://www.w3.org/1999/xlink" xml:space="preserve" xmlns:serif="http://www.serif.com/" style="fill-rule:evenodd;clip-rule:evenodd;stroke-linejoin:round;stroke-miterlimit:2;">
    <g transform="matrix(1,0,0,1,74.6292,3.06671e-09)">
        <g transform="matrix(1,0,0,1,-6.79999e-07,0.0026739)">
            <g transform="matrix(1,0,0,1,6.79999e-07,-0.0026739)">
                <g>
                    <g>
                        <path d="M0,648.642L0,282.219C0,282.219 106.211,307.853 514.284,494.397C1242.71,827.376 2028.84,536.42 2768.88,184.686C3557.67,-190.22 4674.39,121.691 4674.39,121.691L4673.71,648.642L0,648.642Z" style="fill:rgb(255,203,4);"/>
                    </g>
                </g>
            </g>
        </g>
        <g transform="matrix(1,0,0,1,-6.79999e-07,0.0026739)">
            <g transform="matrix(1,0,0,1,6.79999e-07,-0.0026739)">
                <rect x="-74.629" y="648.642" width="4749.02" height="1098.31" style="fill:rgb(255,203,4);"/>
            </g>
        </g>
    </g>
</svg>
